<svg width="46" height="46" viewBox="0 0 46 46" fill="none" xmlns="http://www.w3.org/2000/svg">
<rect width="46" height="46" rx="8" fill="white"/>
<path d="M15.5625 18.8906C15.2461 18.8906 15 18.6445 15 18.3281V16.9219C15 16.6406 15.2461 16.3594 15.5625 16.3594H30.1875C30.4688 16.3594 30.75 16.6406 30.75 16.9219V18.3281C30.75 18.6445 30.4688 18.8906 30.1875 18.8906H15.5625ZM15.5625 24.5156C15.2461 24.5156 15 24.2695 15 23.9531V22.5469C15 22.2656 15.2461 21.9844 15.5625 21.9844H30.1875C30.4688 21.9844 30.75 22.2656 30.75 22.5469V23.9531C30.75 24.2695 30.4688 24.5156 30.1875 24.5156H15.5625ZM15.5625 30.1406C15.2461 30.1406 15 29.8945 15 29.5781V28.1719C15 27.8906 15.2461 27.6094 15.5625 27.6094H30.1875C30.4688 27.6094 30.75 27.8906 30.75 28.1719V29.5781C30.75 29.8945 30.4688 30.1406 30.1875 30.1406H15.5625Z" fill="#2C2C2C"/>
</svg>
